<svg width="520" height="220" viewBox="0 0 520 220" fill="none" xmlns="http://www.w3.org/2000/svg">
  <g fill="#472F25">

    <!-- c -->
    <path d="M 68 60 C 42 60, 18 82, 18 110 C 18 138, 42 160, 68 160 C 84 160, 98 153, 107 142 L 93 130 C 87 138, 78 143, 68 143 C 52 143, 36 128, 36 110 C 36 92, 52 77, 68 77 C 78 77, 87 82, 93 90 L 107 78 C 98 67, 84 60, 68 60 Z"/>

    <!-- o = original coffee bean SVG path, scaled and positioned -->
    <g transform="translate(115, 59) scale(0.298)">
      <path d="M192.412 338.226C175.162 336.726 160.562 330.026 148.712 318.226C128.762 298.276 121.162 266.076 127.512 228.226C132.812 196.976 147.662 162.526 170.712 128.026C178.512 116.376 189.412 101.576 193.762 96.7265L195.362 94.9765L194.262 96.9765C193.612 98.0765 191.112 102.576 188.612 106.976C165.812 147.626 150.912 183.776 145.262 212.176C140.812 234.876 141.512 261.576 147.062 278.176C151.112 290.326 157.362 298.076 165.662 301.276C169.762 302.826 176.212 302.876 181.262 301.326C188.812 298.976 194.962 294.926 203.462 286.726C216.962 273.726 228.462 256.876 239.812 233.476C255.362 201.476 266.162 163.476 269.862 127.726C270.862 118.126 270.712 92.0765 269.612 84.2765C265.712 56.6265 254.912 36.6765 239.712 29.0765C233.562 25.9765 230.262 25.1765 223.012 24.8765C211.062 24.3765 198.812 27.8265 180.012 36.9765C145.012 53.9765 112.712 84.6265 91.7616 120.726C75.9116 148.076 68.7116 174.876 67.9116 209.776C67.4616 228.726 68.9616 242.226 73.3116 257.976C81.0616 286.276 96.4116 309.376 120.212 328.476C123.562 331.176 126.262 333.426 126.262 333.576C126.262 334.426 112.062 329.226 103.412 325.226C93.3116 320.476 82.3116 313.776 71.7116 305.926C51.8616 291.226 32.9616 270.126 21.1116 249.476C-0.38838 212.026 -5.73838 166.726 6.31162 124.176C9.56162 112.676 14.3116 100.676 19.4116 91.2265C35.6616 60.9265 58.7116 38.2265 91.4116 20.3265C137.662 -4.97353 187.212 -6.67353 236.162 15.3265C281.212 35.5765 311.262 66.1265 326.062 106.676C338.012 139.376 338.662 183.076 327.662 219.476C318.362 250.476 302.812 276.776 281.062 298.526C272.112 307.476 265.562 312.876 256.262 319.026C234.662 333.226 212.362 339.976 192.412 338.226Z"/>
    </g>

    <!-- f (first) -->
    <path d="M 248 60 C 235 60, 222 72, 222 90 L 222 160 L 240 160 L 240 118 L 268 118 L 268 102 L 240 102 L 240 91 C 240 82, 244 77, 252 77 L 270 77 L 270 60 L 248 60 Z"/>

    <!-- f (second) -->
    <path d="M 300 60 C 287 60, 274 72, 274 90 L 274 160 L 292 160 L 292 118 L 320 118 L 320 102 L 292 102 L 292 91 C 292 82, 296 77, 304 77 L 322 77 L 322 60 L 300 60 Z"/>

    <!-- e (first) -->
    <path d="M 360 60 C 334 60, 312 82, 312 110 C 312 138, 334 160, 360 160 C 376 160, 390 153, 399 142 L 386 131 C 380 139, 371 143, 360 143 C 347 143, 336 135, 332 124 L 404 124 C 405 119, 406 115, 406 110 C 406 82, 386 60, 360 60 Z M 332 109 C 335 97, 347 77, 360 77 C 373 77, 385 97, 388 109 Z" fill-rule="evenodd"/>

    <!-- e (second) -->
    <path d="M 450 60 C 424 60, 402 82, 402 110 C 402 138, 424 160, 450 160 C 466 160, 480 153, 489 142 L 476 131 C 470 139, 461 143, 450 143 C 437 143, 426 135, 422 124 L 494 124 C 495 119, 496 115, 496 110 C 496 82, 476 60, 450 60 Z M 422 109 C 425 97, 437 77, 450 77 C 463 77, 475 97, 478 109 Z" fill-rule="evenodd"/>

  </g>
</svg>
